<svg height="990" width="720" xmlns="http://www.w3.org/2000/svg">
<rect height="990" fill="#555" width="720"></rect>
<text fill="#7f7" font-family="Courier New" font-size="12" xml:space="preserve">
<tspan x="10" y="26">26 megabytes installed</tspan>
<tspan x="10" y="42"></tspan>
<tspan x="10" y="58">node_modules</tspan>
<tspan x="10" y="74">└─┬ node-debug@0.1.0 </tspan>
<tspan x="10" y="90">  ├─┬ node-inspector@0.6.2 </tspan>
<tspan x="10" y="106">  │ ├── async@0.2.10 </tspan>
<tspan x="10" y="122">  │ ├── debug@0.7.4 </tspan>
<tspan x="10" y="138">  │ ├─┬ express@3.4.8 </tspan>
<tspan x="10" y="154">  │ │ ├── buffer-crc32@0.2.1 </tspan>
<tspan x="10" y="170">  │ │ ├─┬ commander@1.3.2 </tspan>
<tspan x="10" y="186">  │ │ │ └── keypress@0.1.0 </tspan>
<tspan x="10" y="202">  │ │ ├─┬ connect@2.12.0 </tspan>
<tspan x="10" y="218">  │ │ │ ├── batch@0.5.0 </tspan>
<tspan x="10" y="234">  │ │ │ ├── bytes@0.2.1 </tspan>
<tspan x="10" y="250">  │ │ │ ├─┬ multiparty@2.2.0 </tspan>
<tspan x="10" y="266">  │ │ │ │ ├─┬ readable-stream@1.1.14 </tspan>
<tspan x="10" y="282">  │ │ │ │ │ ├── core-util-is@1.0.2 </tspan>
<tspan x="10" y="298">  │ │ │ │ │ ├── isarray@0.0.1 </tspan>
<tspan x="10" y="314">  │ │ │ │ │ └── string_decoder@0.10.31 </tspan>
<tspan x="10" y="330">  │ │ │ │ └── stream-counter@0.2.0 </tspan>
<tspan x="10" y="346">  │ │ │ ├── negotiator@0.3.0 </tspan>
<tspan x="10" y="362">  │ │ │ ├── pause@0.0.1 </tspan>
<tspan x="10" y="378">  │ │ │ ├── qs@0.6.6 </tspan>
<tspan x="10" y="394">  │ │ │ ├── raw-body@1.1.2 </tspan>
<tspan x="10" y="410">  │ │ │ └── uid2@0.0.3 </tspan>
<tspan x="10" y="426">  │ │ ├── cookie@0.1.0 </tspan>
<tspan x="10" y="442">  │ │ ├── cookie-signature@1.0.1 </tspan>
<tspan x="10" y="458">  │ │ ├── fresh@0.2.0 </tspan>
<tspan x="10" y="474">  │ │ ├── merge-descriptors@0.0.1 </tspan>
<tspan x="10" y="490">  │ │ ├── methods@0.1.0 </tspan>
<tspan x="10" y="506">  │ │ ├── mkdirp@0.3.5 </tspan>
<tspan x="10" y="522">  │ │ ├── range-parser@0.0.4 </tspan>
<tspan x="10" y="538">  │ │ └─┬ send@0.1.4 </tspan>
<tspan x="10" y="554">  │ │   └── mime@1.2.11 </tspan>
<tspan x="10" y="570">  │ ├─┬ glob@3.2.11 </tspan>
<tspan x="10" y="586">  │ │ ├── inherits@2.0.3 </tspan>
<tspan x="10" y="602">  │ │ └─┬ minimatch@0.3.0 </tspan>
<tspan x="10" y="618">  │ │   ├── lru-cache@2.7.3 </tspan>
<tspan x="10" y="634">  │ │   └── sigmund@1.0.1 </tspan>
<tspan x="10" y="650">  │ ├─┬ rc@0.3.5 </tspan>
<tspan x="10" y="666">  │ │ ├── deep-extend@0.2.11 </tspan>
<tspan x="10" y="682">  │ │ ├── ini@1.1.0 </tspan>
<tspan x="10" y="698">  │ │ └── minimist@0.0.10 </tspan>
<tspan x="10" y="714">  │ ├─┬ socket.io@0.9.17 </tspan>
<tspan x="10" y="730">  │ │ ├── base64id@0.1.0 </tspan>
<tspan x="10" y="746">  │ │ ├── policyfile@0.0.4 </tspan>
<tspan x="10" y="762">  │ │ ├── redis@0.7.3 </tspan>
<tspan x="10" y="778">  │ │ └─┬ socket.io-client@0.9.16 </tspan>
<tspan x="10" y="794">  │ │   ├─┬ active-x-obfuscator@0.0.1 </tspan>
<tspan x="10" y="810">  │ │   │ └── zeparser@0.0.5 </tspan>
<tspan x="10" y="826">  │ │   ├── uglify-js@1.2.5 </tspan>
<tspan x="10" y="842">  │ │   ├─┬ ws@0.4.32 </tspan>
<tspan x="10" y="858">  │ │   │ ├── commander@2.1.0 </tspan>
<tspan x="10" y="874">  │ │   │ ├── nan@1.0.0 </tspan>
<tspan x="10" y="890">  │ │   │ ├── options@0.0.6 </tspan>
<tspan x="10" y="906">  │ │   │ └── tinycolor@0.0.1 </tspan>
<tspan x="10" y="922">  │ │   └── xmlhttprequest@1.4.2 </tspan>
<tspan x="10" y="938">  │ └─┬ strong-data-uri@0.1.1 </tspan>
<tspan x="10" y="954">  │   └── truncate@1.0.5 </tspan>
<tspan x="10" y="970">  └── open@0.0.5</tspan>
</text>
</svg>
